<svg width="1227" height="1227" viewBox="0 0 1227 1227" fill="none" xmlns="http://www.w3.org/2000/svg">
<path d="M613.5 0C274.675 0 0 274.68 0 613.5C0 952.344 274.68 1227 613.5 1227C952.349 1227 1227 952.344 1227 613.5C1227 274.704 952.349 0.0335508 613.49 0.0335508L613.5 0ZM894.842 884.849C883.852 902.871 860.261 908.584 842.24 897.522C698.197 809.537 516.869 789.608 303.318 838.4C293.429 840.651 283.052 838.882 274.466 833.483C265.881 828.084 259.791 819.497 257.536 809.609C256.412 804.714 256.264 799.645 257.102 794.693C257.94 789.741 259.746 785.003 262.417 780.75C265.088 776.497 268.572 772.813 272.669 769.908C276.766 767.003 281.396 764.935 286.294 763.822C519.999 710.428 720.455 733.415 882.17 832.246C900.191 843.309 905.905 866.828 894.842 884.849ZM969.934 717.8C956.082 740.303 926.634 747.411 904.146 733.564C739.239 632.202 487.862 602.845 292.812 662.053C267.515 669.693 240.799 655.438 233.12 630.184C225.5 604.887 239.763 578.219 265.018 570.531C487.819 502.921 764.804 535.672 954.184 652.045C976.673 665.897 983.781 695.34 969.934 717.8ZM976.38 543.849C778.651 426.402 452.427 415.598 263.647 472.903C233.331 482.096 201.271 464.98 192.088 434.665C182.9 404.335 199.996 372.299 230.336 363.082C447.04 297.293 807.299 310.009 1034.94 445.152C1062.27 461.333 1071.2 496.552 1055.01 523.78C1038.9 551.052 1003.59 560.039 976.409 543.849H976.38Z" fill="#1ED760"/>
</svg>
