<svg width="698" height="698" viewBox="0 0 698 698" fill="none" xmlns="http://www.w3.org/2000/svg">
<path d="M349 0C156.254 0 0 156.257 0 349C0 541.757 156.257 698 349 698C541.76 698 698 541.757 698 349C698 156.27 541.76 0.0190859 348.995 0.0190859L349 0ZM509.047 503.362C502.794 513.613 489.374 516.864 479.122 510.571C397.181 460.519 294.03 449.182 172.548 476.939C166.922 478.219 161.019 477.212 156.135 474.141C151.251 471.07 147.787 466.185 146.504 460.56C145.864 457.775 145.78 454.892 146.257 452.075C146.733 449.258 147.761 446.563 149.28 444.143C150.8 441.724 152.782 439.628 155.113 437.975C157.443 436.323 160.077 435.146 162.863 434.513C295.81 404.139 409.843 417.216 501.837 473.438C512.089 479.731 515.339 493.11 509.047 503.362ZM551.764 408.333C543.884 421.134 527.132 425.177 514.339 417.3C420.529 359.639 277.529 342.939 166.571 376.62C152.18 380.966 136.983 372.857 132.615 358.491C128.279 344.1 136.394 328.93 150.76 324.556C277.504 286.095 435.072 304.726 542.804 370.927C555.597 378.807 559.641 395.556 551.764 408.333ZM555.431 309.378C442.949 242.566 257.371 236.42 149.98 269.019C132.735 274.249 114.497 264.512 109.272 247.267C104.046 230.013 113.771 211.788 131.03 206.545C254.306 169.12 459.246 176.354 588.744 253.232C604.291 262.437 609.373 282.472 600.163 297.961C590.996 313.476 570.907 318.588 555.447 309.378H555.431Z" fill="white"/>
</svg>
